HIERARCHY
ROOT Hips
{
	OFFSET 0.000000 0.000000 0.000000
	CHANNELS 6 Xposition Yposition Zposition Zrotation Yrotation Xrotation 
	JOINT LHipJoint
	{
		OFFSET 0.000000 0.000000 0.000000
		CHANNELS 3 Zrotation Yrotation Xrotation
		JOINT LeftUpLeg
		{
			OFFSET 1.363060 -1.794630 0.839290
			CHANNELS 3 Zrotation Yrotation Xrotation
			JOINT LeftLeg
			{
				OFFSET 2.448110 -6.726130 0.000000
				CHANNELS 3 Zrotation Yrotation Xrotation
				JOINT LeftFoot
				{
					OFFSET 2.562200 -7.039590 0.000000
					CHANNELS 3 Zrotation Yrotation Xrotation
					JOINT LeftToeBase
					{
						OFFSET 0.157640 -0.433110 2.322550
						CHANNELS 3 Zrotation Yrotation Xrotation
						End Site
						{
							OFFSET 0.000000 0.000000 0.000000
						}
					}
				}
			}
		}
	}
	JOINT RHipJoint
	{
		OFFSET 0.000000 0.000000 0.000000
		CHANNELS 3 Zrotation Yrotation Xrotation
		JOINT RightUpLeg
		{
			OFFSET -1.305520 -1.794630 0.839290
			CHANNELS 3 Zrotation Yrotation Xrotation
			JOINT RightLeg
			{
				OFFSET -2.542530 -6.985550 0.000000
				CHANNELS 3 Zrotation Yrotation Xrotation
				JOINT RightFoot
				{
					OFFSET -2.568260 -7.056230 0.000000
					CHANNELS 3 Zrotation Yrotation Xrotation
					JOINT RightToeBase
					{
						OFFSET -0.164730 -0.452590 2.363150
						CHANNELS 3 Zrotation Yrotation Xrotation
						End Site
						{
							OFFSET 0.000000 0.000000 0.000000
						}
					}
				}
			}
		}
	}
	JOINT LowerBack
	{
		OFFSET 0.000000 0.000000 0.000000
		CHANNELS 3 Zrotation Yrotation Xrotation
		JOINT Spine
		{
			OFFSET 0.028270 2.035590 -0.193380
			CHANNELS 3 Zrotation Yrotation Xrotation
			JOINT Spine1
			{
				OFFSET 0.056720 2.048850 -0.042750
				CHANNELS 3 Zrotation Yrotation Xrotation
				JOINT Neck
				{
					OFFSET 0.000000 0.000000 0.000000
					CHANNELS 3 Zrotation Yrotation Xrotation
					JOINT Neck1
					{
						OFFSET -0.054170 1.746240 0.172020
						CHANNELS 3 Zrotation Yrotation Xrotation
						JOINT Head
						{
							OFFSET 0.104070 1.761360 -0.123970
							CHANNELS 3 Zrotation Yrotation Xrotation
							End Site
							{
								OFFSET 0.000000 0.000000 0.000000
							}
						}
					}
				}
				JOINT LeftShoulder
				{
					OFFSET 0.000000 0.000000 0.000000
					CHANNELS 3 Zrotation Yrotation Xrotation
					JOINT LeftArm
					{
						OFFSET 3.362410 1.200890 -0.311210
						CHANNELS 3 Zrotation Yrotation Xrotation
						JOINT LeftForeArm
						{
							OFFSET 4.983000 -0.000000 -0.000000
							CHANNELS 3 Zrotation Yrotation Xrotation
							JOINT LeftHand
							{
								OFFSET 3.483560 -0.000000 -0.000000
								CHANNELS 3 Zrotation Yrotation Xrotation
								JOINT LeftFingerBase
								{
									OFFSET 0.000000 0.000000 0.000000
									CHANNELS 3 Zrotation Yrotation Xrotation
									JOINT LeftHandIndex1
									{
										OFFSET 0.715260 -0.000000 -0.000000
										CHANNELS 3 Zrotation Yrotation Xrotation
										End Site
										{
											OFFSET 0.000000 0.000000 0.000000
										}
									}
								}
								JOINT LThumb
								{
									OFFSET 0.000000 0.000000 0.000000
									CHANNELS 3 Zrotation Yrotation Xrotation
									End Site
									{
										OFFSET 0.000000 0.000000 0.000000
									}
								}
							}
						}
					}
				}
				JOINT RightShoulder
				{
					OFFSET 0.000000 0.000000 0.000000
					CHANNELS 3 Zrotation Yrotation Xrotation
					JOINT RightArm
					{
						OFFSET -3.136600 1.374050 -0.404650
						CHANNELS 3 Zrotation Yrotation Xrotation
						JOINT RightForeArm
						{
							OFFSET -5.241900 -0.000000 -0.000000
							CHANNELS 3 Zrotation Yrotation Xrotation
							JOINT RightHand
							{
								OFFSET -3.444170 -0.000000 -0.000000
								CHANNELS 3 Zrotation Yrotation Xrotation
								JOINT RightFingerBase
								{
									OFFSET 0.000000 0.000000 0.000000
									CHANNELS 3 Zrotation Yrotation Xrotation
									JOINT RightHandIndex1
									{
										OFFSET -0.622530 -0.000000 -0.000000
										CHANNELS 3 Zrotation Yrotation Xrotation
										End Site
										{
											OFFSET 0.000000 0.000000 0.000000
										}
									}
								}
								JOINT RThumb
								{
									OFFSET 0.000000 0.000000 0.000000
									CHANNELS 3 Zrotation Yrotation Xrotation
									End Site
									{
										OFFSET 0.000000 0.000000 0.000000
									}
								}
							}
						}
					}
				}
			}
		}
	}
}
MOTION
Frames: 4
Frame Time: 0.008333
1.951915 34.106558 -5.081343 179.701532 -13.868044 -167.615530 -2.815963 1.027372 1.371815 -19.456389 -0.715609 -23.474219 0.596202 8.758591 26.568257 -2.020551 9.065794 0.586400 0.684700 -5.290500 -14.739000 2.501217 -1.727905 1.599594 17.038375 9.122080 -19.705619 -1.146997 -8.992887 27.675862 -0.225469 -0.403549 -2.830097 -0.220800 -3.024700 8.347400 -2.029579 0.429898 0.706438 0.919160 0.013247 -2.218664 3.001059 0.469310 -0.406781 -11.237885 2.811194 -13.521581 1.178698 3.690933 29.508243 2.727800 -1.692500 16.453100 -9.021979 -1.411756 -1.407475 -78.915843 -20.322295 61.514787 59.881167 -56.032316 -37.826280 -0.008901 -0.839942 45.721684 45.799763 21.926658 21.503600 -7.125000 0.000000 0.000000 19.603100 59.992900 7.340700 7.125633 1.876148 -1.092836 68.221924 3.444877 53.194542 -108.597157 56.967026 -80.275967 -0.301152 1.038052 54.340828 12.099335 -13.826135 -3.258300 7.125000 0.000000 0.000000 35.126200 -41.284800 3.753300 
1.937420 34.102503 -5.081141 179.689830 -13.853528 -167.529503 -2.794245 1.013948 1.358461 -19.571870 -0.589358 -23.641389 0.617413 8.804472 26.719200 -1.926910 8.727624 0.398648 0.526000 -4.647700 -12.906300 2.503182 -1.716227 1.594734 16.951959 9.066067 -19.785363 -1.145335 -8.994562 27.670965 -0.243014 -0.330516 -2.802283 -0.216500 -2.995300 8.265500 -1.958258 0.481219 0.582636 0.770572 0.093293 -2.161746 2.679167 0.506342 -0.254064 -10.919622 2.772776 -13.355365 1.215894 3.507223 29.412142 2.667100 -1.692300 16.364200 -9.033707 -1.414426 -1.391903 -78.584050 -20.603010 61.895773 59.940889 -56.045684 -37.876465 -0.006549 -0.843850 45.671687 45.800460 21.408459 21.081600 -7.125000 0.000000 0.000000 19.477800 59.359700 6.995100 7.116364 1.874469 -1.070816 67.843328 3.427810 53.870561 -108.946813 56.912750 -80.518465 -0.255431 1.053394 53.809443 11.353043 -14.710835 -3.261400 7.125000 0.000000 0.000000 34.989300 -42.167600 2.836600 
1.926574 34.100679 -5.078505 179.656210 -13.864207 -167.419255 -2.779526 0.993266 1.338610 -19.697975 -0.458709 -23.892919 0.647694 8.867854 26.905159 -1.862698 8.500805 0.306896 0.443800 -4.274400 -11.849800 2.495815 -1.705138 1.580903 16.853386 9.161870 -19.862876 -1.147145 -8.999051 27.678153 -0.214498 -0.471792 -2.905764 -0.185100 -2.770900 7.641500 -2.199629 0.496546 0.547469 0.779443 0.112282 -2.122224 2.826652 0.510695 -0.153645 -10.956089 2.733106 -13.505641 1.250230 3.490389 29.439887 2.687000 -1.695900 16.421600 -9.023177 -1.408601 -1.384655 -78.550905 -20.831179 62.152741 60.068277 -56.081357 -37.984690 -0.003811 -0.847908 45.666357 45.692869 21.120864 20.771000 -7.125000 0.000000 0.000000 19.259400 58.973400 6.733600 7.116641 1.865844 -1.075303 67.557516 2.468322 53.960096 -110.036723 56.762727 -81.382389 -0.209447 1.026353 53.831972 10.270122 -14.755064 -2.968600 7.125000 0.000000 0.000000 34.140500 -42.357300 2.560300 
1.916742 34.091354 -5.073336 179.534781 -13.859996 -167.289808 -2.773666 0.974194 1.323361 -19.905910 -0.390278 -24.110214 0.673770 8.921069 27.066415 -1.814895 8.333060 0.193972 0.380500 -3.961700 -10.968800 2.481653 -1.695772 1.570286 16.672361 9.279865 -19.949661 -1.158634 -9.019734 27.735824 -0.229807 -0.441042 -3.106454 -0.197500 -2.862000 7.894900 -2.518719 0.418710 0.625396 0.834901 0.000239 -2.157455 3.105547 0.454862 -0.233473 -11.103251 2.834377 -13.416314 1.248680 3.659108 29.438041 2.730400 -1.658400 16.378500 -9.015843 -1.414435 -1.381501 -78.729712 -21.250909 62.313764 59.721926 -55.973214 -37.670602 -0.007786 -0.837697 45.554870 45.904452 21.146671 20.937201 -7.125000 0.000000 0.000000 19.564600 59.064500 6.888500 7.118029 1.865328 -1.081502 67.072503 1.505307 54.341615 -110.887865 56.636179 -82.049028 -0.165789 0.999245 53.769587 9.125550 -14.765348 -2.652800 7.125000 0.000000 0.000000 33.216600 -42.523700 2.313700 
